HIERARCHY
ROOT Haolin_28_06:Solving:Hips
{
	OFFSET 0.000000 0.000000 0.000000
	CHANNELS 6 Xposition Yposition Zposition Xrotation Yrotation Zrotation
	JOINT Haolin_28_06:Solving:Spine
	{
		OFFSET 0.000000 -12.181966 2.015561
		CHANNELS 6 Xposition Yposition Zposition Xrotation Yrotation Zrotation
		JOINT Haolin_28_06:Solving:Spine1
		{
			OFFSET 0.000000 -8.890296 1.567602
			CHANNELS 6 Xposition Yposition Zposition Xrotation Yrotation Zrotation
			JOINT Haolin_28_06:Solving:Spine2
			{
				OFFSET 0.000000 -8.993092 0.786796
				CHANNELS 6 Xposition Yposition Zposition Xrotation Yrotation Zrotation
				JOINT Haolin_28_06:Solving:Spine3
				{
					OFFSET 0.000000 -9.027443 0.000000
					CHANNELS 6 Xposition Yposition Zposition Xrotation Yrotation Zrotation
					JOINT Haolin_28_06:Solving:Neck
					{
						OFFSET 0.000000 -11.606712 -1.160669
						CHANNELS 6 Xposition Yposition Zposition Xrotation Yrotation Zrotation
						JOINT Haolin_28_06:Solving:Neck1
						{
							OFFSET 0.000000 -7.471592 -0.653680
							CHANNELS 6 Xposition Yposition Zposition Xrotation Yrotation Zrotation
							JOINT Haolin_28_06:Solving:Head
							{
								OFFSET 0.000000 -7.386181 -1.302382
								CHANNELS 6 Xposition Yposition Zposition Xrotation Yrotation Zrotation
								JOINT Haolin_28_06:Solving:HeadEnd
								{
									OFFSET 0.000000 -9.728081 0.000002
									CHANNELS 6 Xposition Yposition Zposition Xrotation Yrotation Zrotation
									End Site
									{
										OFFSET 0.000000 -9.728081 0.000002
									}
								}
							}
						}
					}
					JOINT Haolin_28_06:Solving:RightShoulder
					{
						OFFSET 0.000000 -8.290508 -5.270916
						CHANNELS 6 Xposition Yposition Zposition Xrotation Yrotation Zrotation
						JOINT Haolin_28_06:Solving:RightArm
						{
							OFFSET -19.261074 -0.000008 0.000000
							CHANNELS 6 Xposition Yposition Zposition Xrotation Yrotation Zrotation
							JOINT Haolin_28_06:Solving:RightForeArm
							{
								OFFSET -30.691700 -0.000011 0.000000
								CHANNELS 6 Xposition Yposition Zposition Xrotation Yrotation Zrotation
								JOINT Haolin_28_06:Solving:RightHand
								{
									OFFSET -20.216934 -0.000008 0.000000
									CHANNELS 6 Xposition Yposition Zposition Xrotation Yrotation Zrotation
									JOINT Haolin_28_06:Solving:RightHandThumb1
									{
										OFFSET -4.948814 2.881329 -3.679893
										CHANNELS 6 Xposition Yposition Zposition Xrotation Yrotation Zrotation
										End Site
										{
											OFFSET -7.039886 -0.000004 -7.104978
										}
									}
									JOINT Haolin_28_06:Solving:RightHandMiddle1
									{
										OFFSET -13.196846 -0.000004 0.084595
										CHANNELS 6 Xposition Yposition Zposition Xrotation Yrotation Zrotation
										End Site
										{
											OFFSET -10.002037 -0.000004 0.000000
										}
									}
								}
							}
						}
					}
					JOINT Haolin_28_06:Solving:LeftShoulder
					{
						OFFSET 0.000000 -8.290508 -5.270916
						CHANNELS 6 Xposition Yposition Zposition Xrotation Yrotation Zrotation
						JOINT Haolin_28_06:Solving:LeftArm
						{
							OFFSET 19.261074 -0.000008 0.000000
							CHANNELS 6 Xposition Yposition Zposition Xrotation Yrotation Zrotation
							JOINT Haolin_28_06:Solving:LeftForeArm
							{
								OFFSET 30.691700 -0.000011 0.000000
								CHANNELS 6 Xposition Yposition Zposition Xrotation Yrotation Zrotation
								JOINT Haolin_28_06:Solving:LeftHand
								{
									OFFSET 20.216934 -0.000008 0.000000
									CHANNELS 6 Xposition Yposition Zposition Xrotation Yrotation Zrotation
									JOINT Haolin_28_06:Solving:LeftHandThumb1
									{
										OFFSET 4.948814 2.881329 -3.679893
										CHANNELS 6 Xposition Yposition Zposition Xrotation Yrotation Zrotation
										End Site
										{
											OFFSET 7.039886 -0.000004 -7.104978
										}
									}
									JOINT Haolin_28_06:Solving:LeftHandMiddle1
									{
										OFFSET 13.196846 -0.000004 0.084595
										CHANNELS 6 Xposition Yposition Zposition Xrotation Yrotation Zrotation
										End Site
										{
											OFFSET 10.002037 -0.000004 0.000000
										}
									}
								}
							}
						}
					}
				}
			}
		}
	}
	JOINT Haolin_28_06:Solving:RightUpLeg
	{
		OFFSET -10.083070 0.000000 0.000000
		CHANNELS 6 Xposition Yposition Zposition Xrotation Yrotation Zrotation
		JOINT Haolin_28_06:Solving:RightLeg
		{
			OFFSET 0.000000 47.042522 -0.000008
			CHANNELS 6 Xposition Yposition Zposition Xrotation Yrotation Zrotation
			JOINT Haolin_28_06:Solving:RightFoot
			{
				OFFSET 0.000000 38.766415 -0.000006
				CHANNELS 6 Xposition Yposition Zposition Xrotation Yrotation Zrotation
				JOINT Haolin_28_06:Solving:RightForeFoot
				{
					OFFSET 0.000000 3.531212 -0.000000
					CHANNELS 6 Xposition Yposition Zposition Xrotation Yrotation Zrotation
					JOINT Haolin_28_06:Solving:RightToeBase
					{
						OFFSET 0.000000 0.000000 -13.829352
						CHANNELS 6 Xposition Yposition Zposition Xrotation Yrotation Zrotation
						JOINT Haolin_28_06:Solving:RightToeBaseEnd
						{
							OFFSET 0.000000 0.000000 -4.034167
							CHANNELS 6 Xposition Yposition Zposition Xrotation Yrotation Zrotation
							End Site
							{
								OFFSET 0.000000 -4.034164 0.000004
							}
						}
					}
				}
			}
		}
	}
	JOINT Haolin_28_06:Solving:LeftUpLeg
	{
		OFFSET 10.083070 0.000000 0.000000
		CHANNELS 6 Xposition Yposition Zposition Xrotation Yrotation Zrotation
		JOINT Haolin_28_06:Solving:LeftLeg
		{
			OFFSET 0.000000 47.042522 -0.000008
			CHANNELS 6 Xposition Yposition Zposition Xrotation Yrotation Zrotation
			JOINT Haolin_28_06:Solving:LeftFoot
			{
				OFFSET 0.000000 38.766415 -0.000006
				CHANNELS 6 Xposition Yposition Zposition Xrotation Yrotation Zrotation
				JOINT Haolin_28_06:Solving:LeftForeFoot
				{
					OFFSET 0.000000 3.531212 -0.000000
					CHANNELS 6 Xposition Yposition Zposition Xrotation Yrotation Zrotation
					JOINT Haolin_28_06:Solving:LeftToeBase
					{
						OFFSET 0.000000 0.000000 -13.829352
						CHANNELS 6 Xposition Yposition Zposition Xrotation Yrotation Zrotation
						JOINT Haolin_28_06:Solving:LeftToeBaseEnd
						{
							OFFSET 0.000000 0.000000 -4.855067
							CHANNELS 6 Xposition Yposition Zposition Xrotation Yrotation Zrotation
							End Site
							{
								OFFSET 0.000000 -4.855064 0.000004
							}
						}
					}
				}
			}
		}
	}
}
MOTION
Frames: 4
Frame Time: 0.041667
52.316444 -183.779480 -69.177460 151.058472 -2.153910 -3.563731 -0.000003 -12.181981 2.015598 22.768265 -0.329404 -1.399170 -0.000000 -8.890308 1.567600 7.900462 -0.079153 -0.952770 -0.000008 -8.993114 0.786803 6.716063 -1.295131 0.538769 0.000007 -9.027461 0.000000 -1.406199 -1.282090 4.141808 -0.000006 -11.606728 -1.160667 -16.528732 4.851721 -0.825812 0.000008 -7.471605 -0.653695 -15.899161 5.191124 -1.093888 -0.000004 -7.386198 -1.302380 -7.781781 0.664458 -1.337830 -0.000000 -9.728088 -0.000021 0.000003 0.000000 -0.000000 -0.000011 -8.290497 -5.270916 -0.000010 16.871119 23.037371 -19.261070 -0.000027 -0.000011 -92.851627 -43.294472 -92.187241 -30.691700 -0.000011 0.000006 -26.000088 -12.976221 -6.250069 -20.216930 0.000017 0.000004 5.537338 -13.714105 22.240853 -4.948820 2.881329 -3.679886 0.000002 0.000007 0.000004 -13.196866 -0.000014 0.084599 0.000002 0.000003 0.000004 -0.000010 -8.290493 -5.270916 -0.000007 -9.134909 -12.630216 19.261065 -0.000020 -0.000007 49.790979 115.779015 -58.920927 30.691706 -0.000017 -0.000013 -28.667988 6.234798 3.398208 20.216928 -0.000040 0.000015 -0.369742 -0.936200 -21.551552 4.948776 2.881328 -3.679885 -0.000001 -0.000005 -0.000000 13.196830 -0.000032 0.084592 -0.000002 -0.000001 -0.000001 -10.083073 -0.000010 0.000030 -125.020548 12.604505 28.049041 0.000002 47.042488 0.000019 83.261167 -0.000001 -0.000003 -0.000002 38.766415 -0.000016 -14.603211 -3.605933 5.094262 0.000016 3.531212 -0.000007 -0.000001 0.000001 0.000000 0.000008 0.000009 -13.829350 -6.551757 0.000006 0.000000 0.000005 0.000000 -4.034140 0.000000 0.000001 -0.000000 10.083071 -0.000005 0.000024 -120.705302 -19.848914 -18.892660 -0.000016 47.042488 -0.000001 84.419151 -0.000001 -0.000003 -0.000001 38.766411 -0.000030 -19.733695 -4.341480 1.124310 0.000007 3.531219 -0.000006 0.000000 0.000001 -0.000000 0.000004 -0.000000 -13.829386 -0.493265 -0.000000 -0.000001 0.000028 0.000000 -4.855041 0.000001 -0.000002 0.000001 
52.268021 -183.793030 -68.840721 151.297009 -1.985738 -3.481421 0.000011 -12.181965 2.015567 22.652509 -0.343033 -1.411324 -0.000000 -8.890306 1.567606 7.856061 -0.075888 -0.957096 -0.000002 -8.993121 0.786772 6.837007 -1.310193 0.603632 -0.000001 -9.027425 -0.000001 -1.302025 -1.262720 4.234772 -0.000010 -11.606761 -1.160686 -16.740855 4.781966 -1.011170 -0.000005 -7.471596 -0.653695 -15.822295 5.168703 -1.085319 -0.000007 -7.386189 -1.302391 -7.776175 0.664538 -1.340664 0.000001 -9.728073 0.000025 -0.000005 0.000000 -0.000000 -0.000004 -8.290554 -5.270947 -0.000008 16.826719 23.043971 -19.261097 -0.000024 0.000009 -93.150065 -43.288117 -92.247490 -30.691698 -0.000013 0.000001 -25.861526 -12.982658 -6.215057 -20.216932 -0.000005 -0.000011 5.540628 -13.556047 22.482170 -4.948813 2.881265 -3.679909 0.000003 0.000003 0.000002 -13.196842 -0.000039 0.084581 0.000002 -0.000005 0.000004 -0.000004 -8.290554 -5.270947 -0.000005 -9.330254 -12.877331 19.261065 0.000007 0.000001 49.623035 115.651837 -59.000834 30.691690 0.000013 0.000003 -28.360095 6.252293 3.364408 20.216934 -0.000003 -0.000001 -0.489970 -1.238547 -21.585001 4.948802 2.881298 -3.679888 -0.000004 0.000003 -0.000006 13.196854 -0.000029 0.084558 -0.000002 -0.000001 -0.000000 -10.083063 -0.000009 0.000017 -125.518783 12.603820 27.926941 0.000005 47.042522 0.000000 83.828899 0.000000 -0.000004 -0.000017 38.766430 0.000021 -14.845674 -3.511066 5.106517 -0.000007 3.531212 -0.000040 -0.000001 0.000001 -0.000000 -0.000011 0.000003 -13.829374 -6.596901 0.000002 -0.000001 0.000014 -0.000008 -4.034180 -0.000000 0.000002 -0.000000 10.083080 0.000013 0.000014 -121.420833 -19.557391 -19.179303 -0.000003 47.042507 0.000007 85.129709 -0.000005 -0.000002 -0.000018 38.766426 -0.000001 -19.923249 -4.387309 1.122503 -0.000037 3.531212 -0.000020 0.000000 -0.000001 0.000001 0.000017 0.000009 -13.829378 -0.621883 0.000001 0.000000 -0.000010 0.000000 -4.855076 0.000000 0.000001 0.000000 
52.258354 -183.798584 -68.516144 151.509537 -1.952301 -3.424747 -0.000009 -12.182000 2.015545 22.589111 -0.332558 -1.488762 0.000010 -8.890290 1.567588 7.808831 -0.061560 -0.987146 0.000003 -8.993132 0.786783 6.905792 -1.247489 0.658122 0.000007 -9.027451 0.000006 -1.216243 -1.215466 4.336636 -0.000004 -11.606715 -1.160672 -16.903123 4.716169 -1.198547 0.000002 -7.471586 -0.653653 -15.761577 5.147894 -1.051522 0.000000 -7.386189 -1.302383 -7.798708 0.661173 -1.335005 -0.000009 -9.728088 -0.000019 0.000003 -0.000000 -0.000000 -0.000004 -8.290527 -5.270922 -0.000004 16.786032 23.027631 -19.261087 -0.000037 0.000004 -93.498166 -43.329699 -92.365372 -30.691708 0.000006 -0.000002 -25.741892 -12.906648 -6.146978 -20.216932 0.000022 0.000009 5.566538 -13.517539 22.634132 -4.948814 2.881303 -3.679870 -0.000001 -0.000007 0.000009 -13.196849 -0.000028 0.084597 0.000005 -0.000005 0.000005 -0.000003 -8.290531 -5.270923 -0.000001 -9.498868 -13.126742 19.261074 -0.000058 -0.000004 49.652518 115.603055 -59.199305 30.691710 0.000009 -0.000001 -28.049480 6.255474 3.322674 20.216928 -0.000019 0.000003 -0.600659 -1.520046 -21.564772 4.948792 2.881320 -3.679902 0.000005 -0.000002 0.000000 13.196852 -0.000017 0.084575 -0.000002 0.000003 -0.000002 -10.083069 -0.000032 -0.000025 -126.038874 12.502930 27.953838 0.000008 47.042507 -0.000008 84.416289 -0.000000 -0.000002 0.000007 38.766434 -0.000009 -15.098616 -3.439231 5.134736 0.000011 3.531204 -0.000002 0.000000 -0.000002 0.000000 -0.000002 0.000015 -13.829348 -6.596246 -0.000003 -0.000001 -0.000004 0.000000 -4.034165 -0.000000 0.000003 0.000000 10.083055 -0.000038 -0.000033 -121.988804 -19.386414 -19.275371 -0.000021 47.042542 0.000002 85.714803 0.000000 -0.000007 -0.000015 38.766411 -0.000018 -20.269688 -4.543306 1.112745 0.000018 3.531228 -0.000004 -0.000000 -0.000003 0.000001 0.000015 0.000011 -13.829357 -0.447544 -0.000001 0.000001 0.000029 0.000000 -4.855090 0.000001 -0.000004 -0.000000 
52.261024 -183.803970 -68.189270 151.696425 -1.962578 -3.365924 0.000001 -12.181993 2.015572 22.526213 -0.323472 -1.580959 -0.000005 -8.890333 1.567596 7.785649 -0.045295 -1.026237 0.000003 -8.993109 0.786808 6.955015 -1.165300 0.691396 -0.000001 -9.027433 0.000016 -1.155055 -1.170446 4.457203 0.000014 -11.606709 -1.160670 -16.962457 4.624471 -1.295628 -0.000001 -7.471605 -0.653676 -15.754796 5.143896 -1.111663 0.000001 -7.386185 -1.302372 -7.790458 0.667017 -1.358944 -0.000007 -9.728096 0.000033 -0.000002 0.000000 -0.000001 0.000003 -8.290508 -5.270926 -0.000011 16.737300 23.004588 -19.261068 -0.000015 -0.000002 -93.676994 -43.295644 -92.389319 -30.691704 -0.000027 0.000007 -25.573727 -12.977973 -6.134163 -20.216919 0.000009 -0.000006 5.535345 -13.456523 22.609442 -4.948802 2.881322 -3.679883 -0.000003 -0.000005 0.000006 -13.196853 0.000010 0.084603 0.000002 0.000002 0.000001 0.000006 -8.290508 -5.270926 -0.000008 -9.636702 -13.361760 19.261065 -0.000004 -0.000003 49.594758 115.510547 -59.286042 30.691698 0.000025 -0.000001 -27.577695 6.218998 3.238299 20.216919 -0.000012 -0.000001 -0.733812 -1.852498 -21.613761 4.948798 2.881356 -3.679870 -0.000012 0.000005 -0.000001 13.196841 0.000015 0.084599 -0.000004 0.000001 0.000003 -10.083076 -0.000011 0.000021 -126.538120 12.379258 28.043420 -0.000002 47.042515 -0.000000 84.977553 -0.000003 -0.000001 -0.000017 38.766426 0.000005 -15.375161 -3.410632 5.134616 0.000004 3.531219 -0.000007 -0.000000 -0.000001 -0.000000 0.000009 0.000014 -13.829326 -6.499147 -0.000001 0.000000 0.000000 0.000008 -4.034170 -0.000000 0.000004 0.000000 10.083072 -0.000052 0.000004 -122.522406 -19.228449 -19.316241 0.000003 47.042500 -0.000005 86.310423 -0.000001 -0.000003 0.000001 38.766422 -0.000013 -20.537503 -4.654957 1.061613 -0.000037 3.531227 -0.000013 -0.000001 -0.000002 -0.000001 -0.000024 0.000015 -13.829361 -0.421765 0.000002 0.000000 -0.000025 -0.000000 -4.855092 -0.000001 0.000005 0.000001 
